<svg width="50" height="50" viewBox="0 0 50 50" fill="none" xmlns="http://www.w3.org/2000/svg">
<g clip-path="url(#clip0_791_786)">
<path d="M46.1453 15.9481C47.5004 16.2632 48.0002 17.2195 48.0002 18.2102C48.0002 19.2009 47.3417 19.9995 46.096 20.2151L46.1508 34.6966C47.3946 35.0335 48.1588 35.8231 47.9746 37.2231C47.8342 38.279 47.1283 38.8386 46.1088 39.0089C45.6474 41.1206 44.0168 42.6546 41.8501 42.6546C37.0552 42.6546 32.2749 42.6546 27.4781 42.6546C26.4951 44.0528 25.4482 45.0091 23.6371 44.9964C18.1345 45 12.6338 45.0054 7.13119 44.9964C4.81489 44.9928 3.02569 43.2215 3.01292 40.916C2.99651 37.6578 2.99651 34.3978 3.01292 31.1396C3.02386 28.8178 4.78024 27.0737 7.11113 27.0429C8.52826 27.0085 11.2695 26.994 11.2695 26.994C11.2695 26.994 11.2695 25.9219 11.2695 25.4129C11.275 23.5276 12.4404 22.3703 14.3354 22.3703C15.0759 22.3703 15.8164 22.363 16.5569 22.3703C18.3205 22.392 19.5097 23.5946 19.5206 25.3532C19.5243 25.882 19.5206 26.985 19.5206 26.985H23.1301V19.1954C18.9169 21.1261 13.8029 19.0994 12.7687 14.4413C12.0045 11.1034 13.6077 7.74744 16.6827 6.3547C20.7919 4.40777 25.6816 6.76039 26.7905 11.0925H28.6563C28.6563 10.4188 28.6636 9.79399 28.6545 9.16735C28.5743 7.10631 30.2522 5 32.3661 5C33.9802 5 35.4228 5.00724 37.0443 5.00724C39.2219 5.00724 40.7357 6.92158 40.7613 9.10577C40.7686 9.75233 40.7613 11.1161 40.7613 11.1161C46.448 11.1161 46.1453 15.1748 46.1453 15.9517V15.9481ZM27.7408 41.1731C27.7408 41.1731 36.9202 41.1858 41.5255 41.2021C43.4204 41.1985 44.6224 39.9796 44.6242 38.0888C44.6041 33.4578 44.5968 24.1886 44.5968 24.1886L24.6894 24.2882V27.0828C27.1261 27.7004 27.7444 29.3159 27.7444 31.3787C27.7444 34.655 27.7389 41.1713 27.7389 41.1713L27.7408 41.1731ZM20.8028 28.5226H10.0384V43.5167H20.8046V28.5226H20.8028ZM44.6242 19.0849C44.6242 19.0849 44.6315 16.7577 44.6242 15.6312C44.6096 13.8146 43.404 12.5903 41.582 12.5849C36.6995 12.6537 26.9364 12.6845 26.9364 12.6845C26.9419 14.8307 26.1814 16.6074 24.6475 18.078V19.0849H44.626H44.6242ZM8.36594 43.5366V28.5117C5.98945 28.5081 4.46289 29.4137 4.46289 31.7445C4.46289 34.6441 4.4866 37.5437 4.4866 40.4433C4.4866 42.8176 5.98763 43.5384 8.36411 43.5384L8.36594 43.5366ZM22.4516 43.562C24.7752 43.562 26.2963 42.7687 26.2853 40.4342C26.2871 37.4169 26.2817 34.3996 26.2817 31.3823C26.2817 29.4155 24.7259 28.5099 22.4042 28.5099C22.4042 31.1523 22.4516 38.5217 22.4516 43.5638V43.562ZM39.2529 11.0944V9.21081C39.2529 7.24939 37.9762 6.09572 36.6977 6.09572C36.0521 6.09572 33.6045 6.09572 32.791 6.09572C31.31 6.09572 30.2358 7.27656 30.2358 8.89387V11.0944H39.2529ZM20.5712 13.648C20.5712 13.648 21.8552 13.6589 22.5847 13.6589C23.1246 13.6589 23.3143 13.2568 23.3143 12.7986C23.3143 12.3404 23.0808 12.0289 22.5847 12.0289H20.5657C20.5657 12.0289 20.5821 10.6669 20.5602 10.0186C20.5402 9.42271 20.2484 9.13112 19.7395 9.13112C19.2015 9.13112 18.9644 9.39011 18.9552 10.0222C18.9461 10.6706 18.9534 12.0126 18.9534 12.0126C18.9534 12.0126 18.2056 12.0053 17.2372 12.0126C16.411 12.018 16.2012 12.21 16.1994 12.9073C16.1994 13.476 16.5642 13.6571 16.9508 13.6589C18.0087 13.6589 18.9571 13.6697 18.9571 13.6697C18.9571 13.6697 18.9625 15.2219 18.9625 15.6873C18.9625 16.2506 19.2379 16.4661 19.7559 16.4661C20.2739 16.4661 20.5657 16.2868 20.5657 15.7018C20.5657 15.249 20.5694 13.648 20.5694 13.648H20.5712ZM16.4055 23.8192C15.6541 23.8192 15.0485 23.8192 14.3719 23.8192C12.5553 23.8192 12.6903 25.0688 12.6903 26.9741H18.0196C18.0269 25.067 18.2093 23.8192 16.4073 23.8192H16.4055Z" fill="#282828"/>
</g>
<defs>
<clipPath id="clip0_791_786">
<rect width="45" height="40" fill="white" transform="translate(3 5)"/>
</clipPath>
</defs>
</svg>
