<svg width="50" height="50" viewBox="0 0 50 50" fill="none" xmlns="http://www.w3.org/2000/svg">
<g clip-path="url(#clip0_786_777)">
<path d="M10.0764 32.8667C10.0764 32.8667 3.39224 8.69844 3.11858 7.72107C2.64195 6.02545 3.64765 3.61157 5.40364 3.61157C6.34549 3.61157 8.75826 3.61157 9.39908 3.61157C12.3044 3.61157 13.1528 7.14829 13.2007 8.24612C13.2486 9.34396 13.2737 10.31 12.195 10.31C11.5542 10.31 8.64195 10.31 7.89167 10.31C6.88825 10.3077 6.87456 11.651 7.80045 11.651C8.309 11.651 11.5656 11.676 11.5656 11.676L14.1995 20.7496C11.4629 20.6087 10.2702 22.1975 10.252 23.8022C10.236 25.1796 10.0764 32.869 10.0764 32.869V32.8667Z" fill="#282828"/>
<path d="M19.5222 35.7261C18.2748 35.7261 17.4834 33.7941 17.2508 32.7917L15.5245 25.3569H27.9487V23.9022C27.9487 22.7726 27.0296 21.8566 25.8962 21.8566H13.3398C12.2064 21.8566 11.2873 22.7726 11.2873 23.9022V35.6943C11.2873 36.6967 12.1015 37.5104 13.1072 37.5127H14.1311L11.6454 43.6178C10.7925 45.7112 12.3386 47.9978 14.6032 47.9978H29.5154C31.8415 47.9978 33.3854 45.5998 32.4185 43.4905L29.6203 37.3945H31.9487C32.5781 37.3945 33.0889 36.8853 33.0889 36.258V35.7602C33.0889 35.7602 20.138 35.7238 19.5199 35.7238L19.5222 35.7261ZM30.5188 43.8474C31.0251 45.0452 30.1402 46.3704 28.8381 46.3704H15.0456C13.7503 46.3704 12.8677 45.0611 13.3557 43.8656L15.9624 37.5013H27.8415L30.5188 43.8496V43.8474Z" fill="#282828"/>
<path d="M17.7594 29.9506L18.6921 33.2282C18.9635 34.0078 19.2303 34.5306 20.5302 34.5306H33.3603C33.3603 32.0008 31.3033 29.9506 28.7651 29.9506H17.7571H17.7594Z" fill="#282828"/>
<path fill-rule="evenodd" clip-rule="evenodd" d="M36 18C38.1217 18 40.1566 17.1571 41.6569 15.6569C43.1571 14.1566 44 12.1217 44 10C44 7.87827 43.1571 5.84344 41.6569 4.34315C40.1566 2.84285 38.1217 2 36 2C33.8783 2 31.8434 2.84285 30.3431 4.34315C28.8429 5.84344 28 7.87827 28 10C28 12.1217 28.8429 14.1566 30.3431 15.6569C31.8434 17.1571 33.8783 18 36 18ZM37 7C37 6.73478 36.8946 6.48043 36.7071 6.29289C36.5196 6.10536 36.2652 6 36 6C35.7348 6 35.4804 6.10536 35.2929 6.29289C35.1054 6.48043 35 6.73478 35 7V9H33C32.7348 9 32.4804 9.10536 32.2929 9.29289C32.1054 9.48043 32 9.73478 32 10C32 10.2652 32.1054 10.5196 32.2929 10.7071C32.4804 10.8946 32.7348 11 33 11H35V13C35 13.2652 35.1054 13.5196 35.2929 13.7071C35.4804 13.8946 35.7348 14 36 14C36.2652 14 36.5196 13.8946 36.7071 13.7071C36.8946 13.5196 37 13.2652 37 13V11H39C39.2652 11 39.5196 10.8946 39.7071 10.7071C39.8946 10.5196 40 10.2652 40 10C40 9.73478 39.8946 9.48043 39.7071 9.29289C39.5196 9.10536 39.2652 9 39 9H37V7Z" fill="#282828"/>
</g>
<defs>
<clipPath id="clip0_786_777">
<rect width="44" height="46" fill="white" transform="translate(3 2)"/>
</clipPath>
</defs>
</svg>
