<svg width="50" height="50" viewBox="0 0 50 50" fill="none" xmlns="http://www.w3.org/2000/svg">
<g clip-path="url(#clip0_774_850)">
<path d="M8.12896 23.4698C7.08665 24.5121 7.08665 26.2084 8.12896 27.261C9.17127 28.3033 10.8676 28.3033 11.9201 27.261C19.1345 20.0466 30.8757 20.0466 38.0901 27.261C38.6113 27.7821 39.2959 28.0478 39.9806 28.0478C40.6652 28.0478 41.3499 27.7821 41.871 27.261C42.9134 26.2187 42.9134 24.5224 41.871 23.4698C32.572 14.1606 17.428 14.1606 8.12896 23.4698Z" fill="#282828"/>
<path d="M15.3638 30.7046C14.3215 31.7469 14.3215 33.4432 15.3638 34.4957C16.4061 35.538 18.1024 35.538 19.1549 34.4957C22.3738 31.2666 27.6262 31.2666 30.8451 34.4957C31.3662 35.0169 32.0509 35.2826 32.7355 35.2826C33.4202 35.2826 34.1048 35.0169 34.626 34.4957C35.6683 33.4534 35.6683 31.7571 34.626 30.7148C29.3225 25.3909 20.6775 25.3909 15.3638 30.7046Z" fill="#282828"/>
<path d="M25 43.8969C26.9696 43.8969 28.5663 42.3002 28.5663 40.3306C28.5663 38.361 26.9696 36.7643 25 36.7643C23.0304 36.7643 21.4337 38.361 21.4337 40.3306C21.4337 42.3002 23.0304 43.8969 25 43.8969Z" fill="#282828"/>
<path d="M49.2183 16.1123C35.8625 2.76675 14.1375 2.76675 0.781729 16.1123C-0.260576 17.1547 -0.260576 18.851 0.781729 19.9035C1.82403 20.9458 3.52034 20.9458 4.57286 19.9035C15.8338 8.63227 34.1662 8.63227 45.4374 19.9035C45.9585 20.4246 46.6432 20.6903 47.3278 20.6903C48.0125 20.6903 48.6971 20.4246 49.2183 19.9035C50.2606 18.8612 50.2606 17.1649 49.2183 16.1123Z" fill="#282828"/>
</g>
<defs>
<clipPath id="clip0_774_850">
<rect width="50" height="50" fill="white"/>
</clipPath>
</defs>
</svg>
