<svg width="40" height="40" viewBox="0 0 40 40" fill="none" xmlns="http://www.w3.org/2000/svg">
<g clip-path="url(#clip0_843_761)">
<path d="M26.0333 18.7C25.8256 18.4893 25.5426 18.3698 25.2468 18.3677C24.9509 18.3656 24.6663 18.4812 24.4556 18.6889C24.2449 18.8967 24.1253 19.1796 24.1232 19.4755C24.1212 19.7714 24.2367 20.056 24.4445 20.2667L28.5778 24.4445H8.70001C8.40532 24.4445 8.12271 24.5615 7.91433 24.7699C7.70596 24.9783 7.5889 25.2609 7.5889 25.5556C7.5889 25.8503 7.70596 26.1329 7.91433 26.3413C8.12271 26.5496 8.40532 26.6667 8.70001 26.6667H28.5778L24.4445 30.7778C24.3416 30.8814 24.2601 31.0043 24.2047 31.1393C24.1493 31.2744 24.1211 31.4191 24.1216 31.5651C24.1221 31.7111 24.1514 31.8555 24.2077 31.9902C24.2641 32.1249 24.3464 32.2472 24.45 32.35C24.5536 32.4529 24.6765 32.5344 24.8115 32.5897C24.9466 32.6451 25.0913 32.6734 25.2373 32.6729C25.3833 32.6724 25.5277 32.6431 25.6624 32.5867C25.7971 32.5304 25.9194 32.4481 26.0222 32.3445L32.8111 25.5556L26.0333 18.7Z" fill="#666666"/>
<path d="M14.7111 20.5C14.9318 20.5013 15.1479 20.4368 15.3318 20.3148C15.5157 20.1928 15.6591 20.0188 15.7437 19.815C15.8284 19.6112 15.8504 19.3867 15.807 19.1704C15.7636 18.954 15.6567 18.7554 15.5 18.6L11.3778 14.4444H31.2444C31.5391 14.4444 31.8217 14.3274 32.0301 14.119C32.2385 13.9106 32.3556 13.628 32.3556 13.3333C32.3556 13.0386 32.2385 12.756 32.0301 12.5477C31.8217 12.3393 31.5391 12.2222 31.2444 12.2222H11.3778L15.5 8.07778C15.6029 7.97418 15.6843 7.85133 15.7397 7.71626C15.7951 7.58118 15.8234 7.43651 15.8228 7.29052C15.8223 7.14452 15.7931 7.00006 15.7367 6.86537C15.6804 6.73069 15.598 6.60842 15.4944 6.50556C15.3908 6.40269 15.268 6.32123 15.1329 6.26584C14.9978 6.21044 14.8532 6.1822 14.7072 6.18272C14.4123 6.18376 14.13 6.30188 13.9222 6.51111L7.13333 13.3333L13.9222 20.1556C14.0242 20.2626 14.1465 20.3481 14.282 20.4073C14.4174 20.4664 14.5633 20.4979 14.7111 20.5Z" fill="#666666"/>
</g>
<defs>
<clipPath id="clip0_843_761">
<rect width="40" height="40" fill="white"/>
</clipPath>
</defs>
</svg>
