<svg width="35" height="35" viewBox="0 0 35 35" fill="none" xmlns="http://www.w3.org/2000/svg">
<path d="M20.4167 20.4167H10.2083V23.3333H20.4167M27.7083 27.7083H7.29167V11.6667H27.7083M27.7083 4.37501H26.25V1.45834H23.3333V4.37501H11.6667V1.45834H8.75V4.37501H7.29167C6.51812 4.37501 5.77625 4.6823 5.22927 5.22928C4.68229 5.77626 4.375 6.51813 4.375 7.29168V27.7083C4.375 28.4819 4.68229 29.2238 5.22927 29.7707C5.77625 30.3177 6.51812 30.625 7.29167 30.625H27.7083C28.4819 30.625 29.2237 30.3177 29.7707 29.7707C30.3177 29.2238 30.625 28.4819 30.625 27.7083V7.29168C30.625 6.51813 30.3177 5.77626 29.7707 5.22928C29.2237 4.6823 28.4819 4.37501 27.7083 4.37501ZM24.7917 14.5833H10.2083V17.5H24.7917V14.5833Z" fill="#666666"/>
</svg>
