<svg width="71" height="50" viewBox="0 0 71 50" fill="none" xmlns="http://www.w3.org/2000/svg">
<path fill-rule="evenodd" clip-rule="evenodd" d="M29.3052 14.5773L26.0513 34.5749H31.2573L34.5117 14.5773H29.3052ZM21.6711 14.5773L16.7074 28.3315L16.1203 25.3698L16.1207 25.3707L15.9913 24.7069C15.3906 23.4123 13.9993 20.9517 11.3722 18.8518C10.5955 18.2311 9.81254 17.7013 9.05566 17.2488L13.5668 34.5749H18.9911L27.2744 14.5773H21.6711ZM41.9894 20.1291C41.9894 17.8682 47.0597 18.1587 49.2876 19.3863L50.0304 15.0914C50.0304 15.0914 47.7376 14.2194 45.3478 14.2194C42.764 14.2194 36.6288 15.3493 36.6288 20.8395C36.6288 26.0064 43.8297 26.0706 43.8297 28.7833C43.8297 31.496 37.3712 31.0112 35.2398 29.3L34.4652 33.7892C34.4652 33.7892 36.7898 34.9191 40.3424 34.9191C43.8946 34.9191 49.2551 33.0788 49.2551 28.0729C49.2551 22.8737 41.9894 22.3894 41.9894 20.1291ZM63.2339 14.5773H59.0481C57.1153 14.5773 56.6447 16.0676 56.6447 16.0676L48.8807 34.5749H54.3071L55.3926 31.6047H62.0111L62.6217 34.5749H67.402L63.2339 14.5773ZM56.8929 27.501L59.6286 20.0174L61.1676 27.501H56.8929Z" fill="#005BAC"/>
<path fill-rule="evenodd" clip-rule="evenodd" d="M14.4404 16.4601C14.4404 16.4601 14.2249 14.6553 11.9243 14.6553H3.56616L3.46826 14.9945C3.46826 14.9945 7.48586 15.8135 11.3402 18.8819C15.0237 21.8145 16.2252 25.4702 16.2252 25.4702L14.4404 16.4601Z" fill="#F6AC1D"/>
</svg>
