<svg width="490" height="120" viewBox="0 0 490 120" fill="none" xmlns="http://www.w3.org/2000/svg">
<g clip-path="url(#clip0_593_1478)">
<path d="M36.5695 63.4491L28.5769 70.4979L29.5107 77.6069C32.2218 77.6069 33.497 78.6311 33.3865 80.6393L27.1611 81.5631L23.2451 69.5741L32.6234 57.5851C33.5673 59.6636 35.0031 61.5714 36.5695 63.4491Z" fill="#2E3A71"/>
<path d="M48.5384 94.4557H53.7195L63.4593 76.0204C63.1882 75.0163 62.7765 74.7954 61.7423 73.4901C60.7081 72.1848 59.5634 70.1163 58.5593 67.0136C56.7519 69.2427 51.9623 71.743 49.914 72.6366C50.8076 74.1327 54.2115 77.4262 56.0089 78.4102L52.0427 91.845C49.0505 91.7948 48.5484 92.327 48.5283 94.4557H48.5384Z" fill="#2E3A71"/>
<path d="M60.005 3.06251C28.5566 3.06251 3.0625 28.5566 3.0625 60.005C3.0625 91.4534 28.5566 116.948 60.005 116.948C91.4534 116.948 116.948 91.4534 116.948 60.005C116.948 28.5566 91.4534 3.06251 60.005 3.06251ZM60.005 115.04C29.6109 115.04 4.97029 90.3991 4.97029 60.005C4.97029 29.6109 29.6109 4.9703 60.005 4.9703C90.3991 4.9703 115.04 29.6109 115.04 60.005C115.04 90.3991 90.3991 115.04 60.005 115.04Z" fill="#2E3A71"/>
<path d="M54.4222 36.1275C54.8238 35.5853 54.9544 35.2238 54.0708 35.1435C51.43 34.9025 48.3574 33.7378 46.6404 30.7556C44.7125 27.4119 41.5898 26.4078 41.5898 26.4078C41.7304 22.783 41.65 19.5297 40.917 17.391C29.9121 24.8916 25.8053 35.4247 28.9281 49.1507C29.1791 41.3288 35.2238 35.0531 41.148 36.0271C46.4898 36.9107 48.8595 37.4529 52.5646 37.1617C52.0726 38.5474 47.524 38.5876 44.4113 38.6779C40.3045 38.7984 37.8746 42.0015 37.2722 49.1507C36.9609 46.289 37.0713 44.4816 37.3726 42.5437C35.0029 45.7669 34.6515 48.2671 34.2197 53.0566C33.7679 51.5605 33.5168 49.482 33.4265 46.8814C31.4584 51.3698 32.1513 56.6413 36.8103 62.194C40.1037 66.12 41.2082 67.9274 40.5054 72.6165C39.8025 77.3057 37.734 90.9413 37.734 90.9413C36.007 91.4233 35.0029 92.568 34.8121 94.4557H40.7664L48.7792 64.6138L47.6847 71.8434C52.2533 70.3774 56.0288 68.1483 59.1113 65.2565C60.5572 69.8352 62.0835 72.7972 67.1441 75.9501C70.3673 77.9684 72.9478 86.684 73.229 89.9674C71.9036 90.7606 71.3011 92.0358 71.0802 93.5721L77.2655 93.2709C77.0747 86.935 74.4239 76.2915 72.6366 69.5138C73.5001 66.6321 73.6708 62.686 72.978 59.9448C73.9017 61.8124 74.5042 64.5938 73.8817 68.4696C80.5489 69.6845 79.4644 82.6073 82.3663 86.8547C88.5114 95.8413 98.1106 93.9637 102.92 84.5452C99.1548 86.4128 93.8934 87.6178 89.4352 75.6288C86.2522 67.0638 83.6716 58.2278 68.8612 54.1612C69.6142 54.6532 70.1665 55.2054 70.6083 55.8079C68.7507 53.9001 65.4573 52.5847 62.1136 51.4099C56.0388 49.2913 51.0685 47.1927 46.4998 45.074C41.9312 42.9554 41.0175 39.18 48.0964 39.1599C52.5445 39.1398 53.3679 37.5433 54.4322 36.1175L54.4222 36.1275Z" fill="#2E3A71"/>
<path d="M99.8174 86.9952C94.576 94.7469 83.7217 91.4233 81.9243 81.6936L84.0831 83.5913C83.4907 81.2317 84.1735 79.2536 84.9467 77.9784C85.7098 80.5891 87.1657 82.7178 89.0936 83.4909C88.6016 81.4225 88.3606 79.8762 88.7723 77.7173C91.885 84.2038 94.2848 87.3266 99.8073 86.9952H99.8174Z" fill="#F4F3F3"/>
<path d="M45.4357 32.6533C44.4015 31.2978 42.9957 30.4343 41.2285 30.0527C41.2285 30.0527 42.4033 32.1212 43.1865 32.4023C43.9697 32.6835 45.4457 32.6634 45.4457 32.6634L45.4357 32.6533Z" fill="#F4F3F3"/>
<path d="M84.6759 21.7187L86.5435 25.6246L86.8046 27.3818C85.2282 27.6027 84.0433 27.7835 83.1999 28.1851L81.8243 26.6689C81.7038 26.5384 81.523 26.4681 81.3423 26.4982L81.1816 26.5183L81.9749 28.5667C81.6234 28.7072 81.1816 28.908 81.1917 28.9783C81.2017 29.0486 81.7038 29.1089 82.0653 29.1289L81.8845 31.338L82.0452 31.3179C82.2359 31.2878 82.4066 31.1673 82.497 30.9865L83.3605 29.1591C84.0935 29.2796 85.4491 29.149 87.0456 28.898L87.3066 30.6351L86.6339 34.9326C87.0556 34.8724 87.1761 34.8322 87.3569 34.3603L88.7023 30.5046C89.2646 30.5046 89.4554 30.4744 89.9976 30.3841C90.0478 30.3841 90.078 30.3539 90.0679 30.2937C90.0679 30.2535 89.9876 29.7615 89.9876 29.7214C89.9876 29.6611 89.9374 29.641 89.8872 29.6511C89.5458 29.6812 89.2546 29.7113 88.9132 29.8318L89.4454 28.6369C89.4655 28.5867 89.5157 28.5466 89.5659 28.5365C89.9776 28.4763 91.7347 28.2052 92.0259 28.1248C92.9597 27.8839 93.4015 27.5023 93.3614 27.2111C93.3212 26.9199 92.7991 26.6789 91.8251 26.7091C91.5038 26.7191 89.7165 26.9601 89.3249 27.0103C89.2747 27.0103 89.2345 27.0003 89.1944 26.9601L88.381 25.966C88.7425 25.9359 89.1944 25.8757 89.3349 25.8455C89.3952 25.8355 89.4153 25.8054 89.4052 25.7451C89.3952 25.6347 89.3249 25.2029 89.3249 25.1527C89.3249 25.0925 89.2847 25.0623 89.2245 25.0724C89.0237 25.0925 88.3409 25.1828 87.9694 25.3535L85.4491 21.8392C85.2583 21.6183 85.0173 21.6484 84.7161 21.6986L84.6759 21.7187Z" fill="#2E3A71"/>
<path d="M46.9921 7.47051C54.5128 16.3267 67.8874 29.0888 81.252 28.5767C81.001 28.6771 80.8805 28.7474 80.7801 28.898C68.4798 29.5607 50.1851 15.5133 42.1523 9.06702C43.2569 8.63526 45.8675 7.75165 46.9921 7.46046V7.47051Z" fill="#2E3A71"/>
<path d="M41.6801 9.29797C49.492 15.5435 68.0277 29.9523 80.7898 29.1289C80.9103 29.2394 80.9906 29.2796 81.3822 29.3398C70.3572 31.0568 46.3893 17.0998 37.8545 10.8844C38.7381 10.4226 40.7363 9.60924 41.6801 9.28793V9.29797Z" fill="#2E3A71"/>
<path d="M60.0049 119.508C92.8675 119.508 119.508 92.8676 119.508 60.005C119.508 27.1424 92.8675 0.502052 60.0049 0.502052C27.1423 0.502052 0.501953 27.1424 0.501953 60.005C0.501953 92.8676 27.1423 119.508 60.0049 119.508Z" stroke="#D71922" stroke-miterlimit="10"/>
</g>
<path d="M193.376 47.624H163.712V59.624H189.056V74.6H163.712V101H146.912V32.648H193.376V47.624ZM242.953 75.176C242.953 80.296 242.537 84.296 241.705 87.176C240.937 89.992 239.465 92.584 237.289 94.952C233.129 99.368 227.593 101.576 220.681 101.576C213.769 101.576 208.233 99.368 204.073 94.952C201.897 92.584 200.393 89.992 199.561 87.176C198.793 84.296 198.409 80.296 198.409 75.176C198.409 70.12 198.825 66.152 199.657 63.272C200.489 60.328 201.961 57.704 204.073 55.4C208.233 50.984 213.769 48.776 220.681 48.776C227.593 48.776 233.129 50.984 237.289 55.4C239.401 57.704 240.873 60.328 241.705 63.272C242.537 66.152 242.953 70.12 242.953 75.176ZM224.905 85.928C226.441 84.392 227.209 80.808 227.209 75.176C227.209 69.544 226.441 65.96 224.905 64.424C223.945 63.464 222.537 62.984 220.681 62.984C218.825 62.984 217.417 63.464 216.457 64.424C214.921 65.96 214.153 69.544 214.153 75.176C214.153 80.808 214.921 84.392 216.457 85.928C217.417 86.888 218.825 87.368 220.681 87.368C222.537 87.368 223.945 86.888 224.905 85.928ZM298.564 101H279.652L271.78 87.944L264.1 101H245.188L263.14 74.6L245.86 49.352H264.772L271.78 61.832L278.98 49.352H297.892L280.612 74.6L298.564 101ZM361.219 101H343.651L340.483 90.824H319.459L316.099 101H298.531L323.395 32.648H336.355L361.219 101ZM336.067 76.808L330.307 58.568L324.163 76.808H336.067ZM409.86 49.352L390.852 101H378.852L359.844 49.352H376.356L384.9 76.136L393.348 49.352H409.86ZM431.602 101H415.858V51.368H431.602V101ZM431.602 44.072H415.858V32.072H431.602V44.072ZM483.931 101H468.571V96.776C466.907 98.44 465.211 99.656 463.483 100.424C461.819 101.128 459.675 101.48 457.051 101.48C451.867 101.48 447.739 99.944 444.667 96.872C441.659 93.864 440.155 89.832 440.155 84.776C440.155 80.552 441.659 77 444.667 74.12C447.675 71.24 452.123 69.8 458.011 69.8H468.187V68.456C468.187 66.152 467.579 64.52 466.363 63.56C465.147 62.536 463.163 62.024 460.411 62.024C457.403 62.024 454.683 63.24 452.251 65.672L442.459 55.88C445.083 53.256 447.771 51.432 450.523 50.408C453.275 49.32 456.827 48.776 461.179 48.776C476.347 48.776 483.931 55.016 483.931 67.496V101ZM468.187 81.608V80.264H460.699C457.051 80.264 455.227 81.672 455.227 84.488C455.227 85.768 455.707 86.792 456.667 87.56C457.627 88.328 459.035 88.712 460.891 88.712C463.259 88.712 465.147 88.104 466.555 86.888C467.643 85.864 468.187 84.104 468.187 81.608Z" fill="#2F3A71"/>
<defs>
<clipPath id="clip0_593_1478">
<rect width="120" height="120" fill="white"/>
</clipPath>
</defs>
</svg>
