<svg width="71" height="50" viewBox="0 0 71 50" fill="none" xmlns="http://www.w3.org/2000/svg">
<path d="M42.8176 11.8967H28.1431V38.1033H42.8176V11.8967Z" fill="#FF5F00"/>
<path d="M29.075 25C29.0727 22.4761 29.6482 19.9848 30.758 17.7146C31.8677 15.4444 33.4827 13.4549 35.4805 11.8967C33.0065 9.96414 30.0352 8.7623 26.9063 8.42856C23.7775 8.09482 20.6172 8.64264 17.7868 10.0094C14.9565 11.3762 12.5701 13.5068 10.9006 16.1577C9.23105 18.8085 8.3457 21.8727 8.3457 25C8.3457 28.1273 9.23105 31.1915 10.9006 33.8424C12.5701 36.4932 14.9565 38.6238 17.7868 39.9906C20.6172 41.3574 23.7775 41.9052 26.9063 41.5715C30.0352 41.2377 33.0065 40.0359 35.4805 38.1033C33.4827 36.5451 31.8678 34.5556 30.758 32.2854C29.6482 30.0152 29.0727 27.5239 29.075 25Z" fill="#EB001B"/>
<path d="M62.6145 25C62.6146 28.1272 61.7293 31.1914 60.0599 33.8423C58.3904 36.4932 56.0042 38.6238 53.1738 39.9906C50.3435 41.3574 47.1833 41.9052 44.0545 41.5715C40.9257 41.2377 37.9545 40.0359 35.4805 38.1033C37.4766 36.5435 39.0902 34.5537 40.1998 32.2839C41.3094 30.014 41.8859 27.5235 41.8859 25C41.8859 22.4765 41.3094 19.986 40.1998 17.7162C39.0902 15.4463 37.4766 13.4565 35.4805 11.8967C37.9545 9.96413 40.9257 8.76229 44.0545 8.42856C47.1833 8.09482 50.3435 8.64267 53.1738 10.0095C56.0042 11.3763 58.3904 13.5069 60.0599 16.1577C61.7293 18.8086 62.6146 21.8728 62.6145 25Z" fill="#F79E1B"/>
<path d="M61.0145 35.3276V34.7911H61.2321V34.6818H60.6777V34.7911H60.8955V35.3276H61.0145ZM62.0908 35.3276V34.6807H61.9209L61.7254 35.1257L61.5299 34.6807H61.3598V35.3276H61.4798V34.8397L61.6632 35.2604H61.7876L61.9709 34.8386V35.3276H62.0908Z" fill="#F79E1B"/>
</svg>
