<svg width="71" height="50" viewBox="0 0 71 50" fill="none" xmlns="http://www.w3.org/2000/svg">
<path d="M51.3296 24.05V34.85H57.3207V28.45H64.1107C66.9664 28.43 69.3928 26.6 70.3115 24.05H51.3296Z" fill="#37A72E"/>
<path d="M50.5308 15.15C50.8802 19.56 55.0541 23.05 60.1465 23.05C60.1665 23.05 70.5611 23.05 70.5611 23.05C70.641 22.65 70.6809 22.23 70.6809 21.8C70.6809 18.14 67.7353 15.18 64.0907 15.15H50.5308Z" fill="url(#paint0_linear_570_1296)"/>
<path d="M41.6641 22.94C41.734 22.82 41.8438 22.75 41.9836 22.75C42.1833 22.75 42.3331 22.91 42.3431 23.1V34.75H48.3342V15.15H42.3431C41.5842 15.18 40.7255 15.73 40.406 16.42L35.643 26.66C35.633 26.7 35.6131 26.74 35.5931 26.78C35.5232 26.88 35.4034 26.95 35.2636 26.95C35.0439 26.95 34.8642 26.77 34.8642 26.55V15.15H28.873V34.75H34.8642C35.6131 34.71 36.4518 34.16 36.7713 33.48L41.6641 22.97C41.6541 22.96 41.6641 22.95 41.6641 22.94Z" fill="#37A72E"/>
<path d="M19.2971 23.28L15.7923 34.75H11.4787L7.98384 23.27C7.95388 23.09 7.79412 22.95 7.59441 22.95C7.37474 22.95 7.20499 23.13 7.20499 23.34V34.74H1.21387V15.14H6.35625H7.88399C8.98236 15.14 10.1406 16 10.4602 17.05L13.3758 26.6C13.5256 27.08 13.7553 27.07 13.9051 26.6L16.8207 17.05C17.1403 15.99 18.2986 15.14 19.3969 15.14H20.9247H26.067V34.74H20.0759V23.34C20.0759 23.34 20.0759 23.34 20.0759 23.33C20.0759 23.11 19.8962 22.94 19.6865 22.94C19.4868 22.95 19.327 23.09 19.2971 23.28Z" fill="#37A72E"/>
<defs>
<linearGradient id="paint0_linear_570_1296" x1="50.5332" y1="19.1" x2="70.6797" y2="19.1" gradientUnits="userSpaceOnUse">
<stop stop-color="#00A0E5"/>
<stop offset="1" stop-color="#0077C3"/>
</linearGradient>
</defs>
</svg>
