<svg width="50" height="50" viewBox="0 0 50 50" fill="none" xmlns="http://www.w3.org/2000/svg">
<path d="M35.4167 17.7083C37.1426 17.7083 38.5417 16.3091 38.5417 14.5833C38.5417 12.8574 37.1426 11.4583 35.4167 11.4583C33.6908 11.4583 32.2917 12.8574 32.2917 14.5833C32.2917 16.3091 33.6908 17.7083 35.4167 17.7083Z" fill="white"/>
<path d="M33.3333 6.25C39.0833 6.25 43.75 10.9167 43.75 16.6667V33.3333C43.75 39.0833 39.0833 43.75 33.3333 43.75H16.6667C10.9167 43.75 6.25 39.0833 6.25 33.3333V16.6667C6.25 10.9167 10.9167 6.25 16.6667 6.25H25H33.3333Z" stroke="white" stroke-width="4.16667" stroke-linecap="round" stroke-linejoin="round"/>
<path d="M25 16.6667C29.6042 16.6667 33.3333 20.3959 33.3333 25.0001C33.3333 29.6042 29.6042 33.3334 25 33.3334C20.3958 33.3334 16.6667 29.6042 16.6667 25.0001C16.6667 20.3959 20.3958 16.6667 25 16.6667Z" stroke="white" stroke-width="4.16667" stroke-linecap="round" stroke-linejoin="round"/>
</svg>
