<svg width="50" height="50" viewBox="0 0 50 50" fill="none" xmlns="http://www.w3.org/2000/svg">
<path fill-rule="evenodd" clip-rule="evenodd" d="M9.375 3.125C7.7174 3.125 6.12769 3.78348 4.95558 4.95558C3.78348 6.12769 3.125 7.7174 3.125 9.375V40.625C3.125 42.2826 3.78348 43.8723 4.95558 45.0444C6.12769 46.2165 7.7174 46.875 9.375 46.875H40.625C42.2826 46.875 43.8723 46.2165 45.0444 45.0444C46.2165 43.8723 46.875 42.2826 46.875 40.625V9.375C46.875 7.7174 46.2165 6.12769 45.0444 4.95558C43.8723 3.78348 42.2826 3.125 40.625 3.125H9.375ZM12.8188 16.5531C13.8092 16.5531 14.759 16.1597 15.4594 15.4594C16.1597 14.759 16.5531 13.8092 16.5531 12.8188C16.5531 11.8283 16.1597 10.8785 15.4594 10.1781C14.759 9.47782 13.8092 9.08438 12.8188 9.08438C11.8283 9.08438 10.8785 9.47782 10.1781 10.1781C9.47782 10.8785 9.08438 11.8283 9.08438 12.8188C9.08438 13.8092 9.47782 14.759 10.1781 15.4594C10.8785 16.1597 11.8283 16.5531 12.8188 16.5531ZM15.9438 40.0406V19.4813H9.69375V40.0406H15.9438ZM20.0938 19.4813H26.3438V22.2344C27.2656 20.7906 29.2906 18.8469 33.0562 18.8469C37.55 18.8469 39.9906 21.825 39.9906 27.4906C39.9906 27.7625 40.0156 29.0031 40.0156 29.0031V40.0375H33.7656V29.0062C33.7656 27.4906 33.4469 24.5125 30.0781 24.5125C26.7062 24.5125 26.4219 28.2563 26.3438 30.7063V40.0375H20.0938V19.4813Z" fill="white"/>
</svg>
