<svg width="44" height="44" viewBox="0 0 44 44" fill="none" xmlns="http://www.w3.org/2000/svg">
<circle cx="22" cy="22" r="20" stroke="white" stroke-width="3"/>
<path d="M22 22C20.35 22 18.9375 21.4125 17.7625 20.2375C16.5875 19.0625 16 17.65 16 16C16 14.35 16.5875 12.9375 17.7625 11.7625C18.9375 10.5875 20.35 10 22 10C23.65 10 25.0625 10.5875 26.2375 11.7625C27.4125 12.9375 28 14.35 28 16C28 17.65 27.4125 19.0625 26.2375 20.2375C25.0625 21.4125 23.65 22 22 22ZM10 34V29.8C10 28.95 10.219 28.169 10.657 27.457C11.095 26.745 11.676 26.201 12.4 25.825C13.95 25.05 15.525 24.469 17.125 24.082C18.725 23.695 20.35 23.501 22 23.5C23.65 23.499 25.275 23.693 26.875 24.082C28.475 24.471 30.05 25.052 31.6 25.825C32.325 26.2 32.9065 26.744 33.3445 27.457C33.7825 28.17 34.001 28.951 34 29.8V34H10Z" fill="white"/>
</svg>
