<svg width="50" height="50" viewBox="0 0 50 50" fill="none" xmlns="http://www.w3.org/2000/svg">
<g clip-path="url(#clip0_467_804)">
<path d="M46.1454 15.9481C47.5005 16.2632 48.0003 17.2195 48.0003 18.2102C48.0003 19.2009 47.3419 19.9995 46.0962 20.2151L46.1509 34.6966C47.3948 35.0335 48.1589 35.8231 47.9747 37.2231C47.8343 38.279 47.1285 38.8386 46.1089 39.0089C45.6475 41.1206 44.017 42.6546 41.8502 42.6546C37.0553 42.6546 32.275 42.6546 27.4782 42.6546C26.4952 44.0528 25.4483 45.0091 23.6372 44.9964C18.1346 45 12.6339 45.0054 7.13131 44.9964C4.81501 44.9928 3.02581 43.2215 3.01304 40.916C2.99663 37.6578 2.99663 34.3978 3.01304 31.1396C3.02399 28.8178 4.78036 27.0737 7.11125 27.0429C8.52838 27.0085 11.2696 26.994 11.2696 26.994C11.2696 26.994 11.2696 25.9219 11.2696 25.4129C11.2751 23.5276 12.4406 22.3703 14.3355 22.3703C15.076 22.3703 15.8165 22.363 16.557 22.3703C18.3207 22.392 19.5098 23.5946 19.5208 25.3532C19.5244 25.882 19.5208 26.985 19.5208 26.985H23.1302V19.1954C18.9171 21.1261 13.803 19.0994 12.7688 14.4413C12.0047 11.1034 13.6078 7.74744 16.6828 6.3547C20.792 4.40777 25.6817 6.76039 26.7907 11.0925H28.6565C28.6565 10.4188 28.6638 9.79399 28.6546 9.16735C28.5744 7.10631 30.2523 5 32.3662 5C33.9803 5 35.423 5.00724 37.0444 5.00724C39.2221 5.00724 40.7359 6.92158 40.7614 9.10577C40.7687 9.75233 40.7614 11.1161 40.7614 11.1161C46.4482 11.1161 46.1454 15.1748 46.1454 15.9517V15.9481ZM27.7409 41.1731C27.7409 41.1731 36.9203 41.1858 41.5256 41.2021C43.4206 41.1985 44.6225 39.9796 44.6243 38.0888C44.6043 33.4578 44.597 24.1886 44.597 24.1886L24.6896 24.2882V27.0828C27.1262 27.7004 27.7445 29.3159 27.7445 31.3787C27.7445 34.655 27.7391 41.1713 27.7391 41.1713L27.7409 41.1731ZM20.8029 28.5226H10.0385V43.5167H20.8048V28.5226H20.8029ZM44.6243 19.0849C44.6243 19.0849 44.6316 16.7577 44.6243 15.6312C44.6097 13.8146 43.4042 12.5903 41.5821 12.5849C36.6997 12.6537 26.9366 12.6845 26.9366 12.6845C26.942 14.8307 26.1815 16.6074 24.6476 18.078V19.0849H44.6261H44.6243ZM8.36606 43.5366V28.5117C5.98958 28.5081 4.46301 29.4137 4.46301 31.7445C4.46301 34.6441 4.48672 37.5437 4.48672 40.4433C4.48672 42.8176 5.98775 43.5384 8.36424 43.5384L8.36606 43.5366ZM22.4517 43.562C24.7753 43.562 26.2964 42.7687 26.2854 40.4342C26.2873 37.4169 26.2818 34.3996 26.2818 31.3823C26.2818 29.4155 24.726 28.5099 22.4043 28.5099C22.4043 31.1523 22.4517 38.5217 22.4517 43.5638V43.562ZM39.2531 11.0944V9.21081C39.2531 7.24939 37.9764 6.09572 36.6978 6.09572C36.0522 6.09572 33.6046 6.09572 32.7911 6.09572C31.3102 6.09572 30.2359 7.27656 30.2359 8.89387V11.0944H39.2531ZM20.5713 13.648C20.5713 13.648 21.8553 13.6589 22.5848 13.6589C23.1247 13.6589 23.3144 13.2568 23.3144 12.7986C23.3144 12.3404 23.0809 12.0289 22.5848 12.0289H20.5658C20.5658 12.0289 20.5822 10.6669 20.5604 10.0186C20.5403 9.42271 20.2485 9.13112 19.7396 9.13112C19.2016 9.13112 18.9645 9.39011 18.9554 10.0222C18.9462 10.6706 18.9535 12.0126 18.9535 12.0126C18.9535 12.0126 18.2058 12.0053 17.2373 12.0126C16.4111 12.018 16.2013 12.21 16.1995 12.9073C16.1995 13.476 16.5643 13.6571 16.9509 13.6589C18.0088 13.6589 18.9572 13.6697 18.9572 13.6697C18.9572 13.6697 18.9627 15.2219 18.9627 15.6873C18.9627 16.2506 19.2381 16.4661 19.756 16.4661C20.274 16.4661 20.5658 16.2868 20.5658 15.7018C20.5658 15.249 20.5695 13.648 20.5695 13.648H20.5713ZM16.4056 23.8192C15.6542 23.8192 15.0487 23.8192 14.372 23.8192C12.5555 23.8192 12.6904 25.0688 12.6904 26.9741H18.0197C18.027 25.067 18.2094 23.8192 16.4074 23.8192H16.4056Z" fill="#2F3A71"/>
</g>
<defs>
<clipPath id="clip0_467_804">
<rect width="45" height="40" fill="white" transform="translate(3 5)"/>
</clipPath>
</defs>
</svg>
