<svg width="50" height="50" viewBox="0 0 50 50" fill="none" xmlns="http://www.w3.org/2000/svg">
<g clip-path="url(#clip0_467_805)">
<path d="M46.9682 8.11651C46.9568 4.73436 44.2042 2 40.8108 2H36.8473C33.438 2 30.6786 4.75936 30.69 8.15743L30.7242 17.9152C30.7356 21.2974 33.4882 24.0317 36.8815 24.0317H40.845C44.2544 24.0317 47.0138 21.2724 47.0024 17.8743L46.9682 8.11651ZM45.1871 17.0651C45.1871 19.9518 42.8382 22.2929 39.942 22.2929H37.6752C34.7789 22.2929 32.43 19.9518 32.43 17.0651V13.9648H34.0172V16.5264C34.0172 18.9108 35.9579 20.845 38.3502 20.845H39.438C41.8302 20.845 43.7709 18.9108 43.7709 16.5264V13.9648H45.1871V17.0651ZM45.2897 11.9737H32.43V8.26653C32.43 5.75492 34.471 3.72062 36.991 3.72062H40.7287C43.2487 3.72062 45.2897 5.75492 45.2897 8.26653V11.976V11.9737Z" fill="#2F3A71"/>
<path d="M10.0765 32.8667C10.0765 32.8667 3.39233 8.69844 3.11867 7.72107C2.64204 6.02545 3.64774 3.61157 5.40373 3.61157C6.34558 3.61157 8.75835 3.61157 9.39917 3.61157C12.3045 3.61157 13.1529 7.14829 13.2008 8.24612C13.2487 9.34396 13.2737 10.31 12.1951 10.31C11.5542 10.31 8.64204 10.31 7.89176 10.31C6.88834 10.3077 6.87465 11.651 7.80054 11.651C8.30909 11.651 11.5656 11.676 11.5656 11.676L14.1996 20.7496C11.463 20.6087 10.2703 22.1975 10.2521 23.8022C10.2361 25.1796 10.0765 32.869 10.0765 32.869V32.8667Z" fill="#2F3A71"/>
<path d="M19.5222 35.7261C18.2748 35.7261 17.4835 33.7941 17.2509 32.7917L15.5245 25.3569H27.9487V23.9022C27.9487 22.7726 27.0297 21.8566 25.8962 21.8566H13.3398C12.2064 21.8566 11.2874 22.7726 11.2874 23.9022V35.6943C11.2874 36.6967 12.1015 37.5104 13.1072 37.5127H14.1311L11.6454 43.6178C10.7925 45.7112 12.3387 47.9978 14.6032 47.9978H29.5154C31.8415 47.9978 33.3854 45.5998 32.4185 43.4905L29.6203 37.3945H31.9487C32.5781 37.3945 33.089 36.8853 33.089 36.258V35.7602C33.089 35.7602 20.138 35.7238 19.52 35.7238L19.5222 35.7261ZM30.5188 43.8474C31.0251 45.0452 30.1403 46.3704 28.8381 46.3704H15.0456C13.7503 46.3704 12.8677 45.0611 13.3558 43.8656L15.9624 37.5013H27.8415L30.5188 43.8496V43.8474Z" fill="#2F3A71"/>
<path d="M17.7594 29.9504L18.6921 33.228C18.9635 34.0077 19.2303 34.5304 20.5302 34.5304H33.3603C33.3603 32.0006 31.3033 29.9504 28.7651 29.9504H17.7571H17.7594Z" fill="#2F3A71"/>
</g>
<defs>
<clipPath id="clip0_467_805">
<rect width="44" height="46" fill="white" transform="translate(3 2)"/>
</clipPath>
</defs>
</svg>
