<svg width="50" height="50" viewBox="0 0 50 50" fill="none" xmlns="http://www.w3.org/2000/svg">
<path d="M17.7428 47.4872C17.1293 47.4872 16.516 46.8739 16.516 46.2604C16.516 45.4429 17.1293 45.0342 17.7428 45.0342H18.5605C9.56577 41.9677 4.86377 33.9949 4.86377 24.5912H45.1363C45.1363 33.9949 40.6388 41.9679 31.4398 45.0342H32.2575C33.0753 45.0342 33.484 45.4432 33.484 46.2604C33.484 46.8739 33.075 47.4872 32.2575 47.4872H17.7428ZM7.31677 27.0442L7.93002 30.1109H34.097C34.506 30.1109 34.9148 30.5197 34.9148 30.9287C34.9148 31.3377 34.5058 31.7464 34.097 31.7464H8.33902C10.7923 38.6972 17.5383 43.6037 25.1023 43.6037C32.4618 43.6037 39.2078 38.6972 41.6613 31.7464H37.9815C37.5725 31.7464 37.1638 31.3377 37.1638 30.9287C37.1638 30.5197 37.5728 30.1109 37.9815 30.1109H42.07C42.479 29.0887 42.479 28.0667 42.6835 27.0442H7.31677ZM13.4498 16.4139C14.063 18.8672 16.3118 20.7069 18.7648 20.7069C21.4225 20.7069 23.671 18.8672 24.08 16.4139H13.4498ZM40.8435 13.9607C41.4565 13.9607 42.0698 14.3697 42.0698 15.1872C42.0698 15.8004 41.4565 16.4137 40.8435 16.4137H26.7378C26.1243 20.2979 22.649 23.1599 18.7648 23.1599C14.4718 23.1599 10.792 19.4802 10.792 15.1872V13.9607H40.8435ZM17.3338 3.33045C17.3338 2.9217 17.5383 2.5127 18.1515 2.5127C18.5603 2.5127 18.7648 2.9217 18.7648 3.33045V10.6899C18.7648 11.0987 18.5605 11.5077 18.1515 11.5077C17.5383 11.5077 17.3338 11.0989 17.3338 10.6899V3.33045ZM21.0135 5.3747C21.0135 4.9657 21.4225 4.55695 21.8313 4.55695C22.2403 4.55695 22.649 4.9657 22.649 5.3747V10.6899C22.649 11.0987 22.24 11.5077 21.8313 11.5077C21.4225 11.5077 21.0135 11.0989 21.0135 10.6899V5.3747ZM13.4498 5.57895C13.4498 5.3747 13.8585 5.1702 14.2675 5.1702C14.6765 5.1702 15.0853 5.3747 15.0853 5.5792V10.6899C15.0853 10.8942 14.6763 11.0987 14.2675 11.0987C13.8588 11.0987 13.4498 10.8942 13.4498 10.6897V5.57895Z" fill="#2F3A71"/>
</svg>
