<svg width="50" height="50" viewBox="0 0 50 50" fill="none" xmlns="http://www.w3.org/2000/svg">
<path fill-rule="evenodd" clip-rule="evenodd" d="M16.3444 4.50198C18.1242 3.71467 19.9846 3.17034 21.8762 2.86839C23.8708 2.55007 25.9004 2.50188 27.9042 2.7243C30.3613 2.99642 32.7827 3.67436 35.0591 4.75803C37.2544 5.80249 39.3153 7.22563 41.1462 9.02706C42.9786 10.8308 44.4352 12.8721 45.5157 15.0539C46.6353 17.3158 47.3506 19.7287 47.6607 22.1836C47.9746 24.6698 47.8728 27.1983 47.3537 29.6565C46.8448 32.07 45.9346 34.4159 44.6228 36.5882H44.6221C44.4686 36.8411 44.2275 37.0082 43.9616 37.0735H43.9611C43.6951 37.1388 43.4037 37.1027 43.1507 36.9493L43.1389 36.9418C42.8922 36.7882 42.7295 36.5503 42.6654 36.2881C42.5995 36.0221 42.6362 35.7307 42.7898 35.4777H42.789C43.9758 33.5136 44.7987 31.3921 45.2585 29.2116C45.7277 26.9884 45.8202 24.7021 45.5369 22.4551C45.2567 20.2355 44.6091 18.0535 43.5958 16.0071C42.6182 14.0342 41.3003 12.1873 39.6423 10.5557C37.9863 8.92568 36.1215 7.63824 34.1356 6.69247C32.0762 5.71188 29.8877 5.0993 27.6668 4.85253C25.8115 4.64687 23.9342 4.69646 22.0924 5.00041C20.3581 5.2863 18.6547 5.7982 17.0306 6.53461L19.4819 7.18092C19.7678 7.25606 19.9964 7.44047 20.1344 7.67726C20.2705 7.91026 20.3183 8.19485 20.248 8.47634L20.2444 8.48931C20.1691 8.776 19.9846 9.00411 19.7478 9.14251C19.511 9.28001 19.2216 9.32771 18.9357 9.25267L13.8589 7.91455C13.5725 7.83951 13.3445 7.65501 13.2059 7.41821C13.0679 7.18142 13.0207 6.89175 13.0959 6.60596C13.104 6.57632 13.1133 6.54589 13.1244 6.51476C13.1356 6.48302 13.1481 6.45389 13.1605 6.42655L15.2608 1.64123C15.3794 1.37021 15.597 1.17273 15.8525 1.07315H15.853C16.1084 0.973761 16.4009 0.971965 16.6719 1.09051C16.943 1.20926 17.1399 1.42669 17.2398 1.68214V1.68284C17.3395 1.93759 17.3413 2.23076 17.2224 2.50188L16.3444 4.50198ZM31.3772 42.8195C31.0914 42.7437 30.8628 42.5597 30.7248 42.3224C30.5869 42.0856 30.5388 41.7961 30.6147 41.5103C30.6898 41.2244 30.8745 40.9957 31.1113 40.8578C31.3479 40.7198 31.6375 40.672 31.9234 40.7478L36.9698 42.0769C37.1045 42.1086 37.2345 42.1664 37.3495 42.2478C37.46 42.3267 37.5581 42.4287 37.6346 42.551C37.7346 42.7101 37.788 42.8854 37.7975 43.0605C37.8075 43.242 37.7712 43.4235 37.6925 43.5869L35.5983 48.3592C35.4795 48.6302 35.2622 48.8271 35.0067 48.9265H35.0062C34.7508 49.0259 34.458 49.0284 34.1872 48.9098C33.9162 48.7904 33.7192 48.573 33.6199 48.3175C33.5197 48.0622 33.5179 47.7689 33.6365 47.4986L34.5104 45.5076C32.7319 46.2956 30.8707 46.8417 28.9786 47.1444C26.9828 47.4638 24.9521 47.5129 22.9455 47.2916C20.4861 47.0207 18.0626 46.3434 15.784 45.2597C13.5855 44.2139 11.5219 42.7903 9.69001 40.987C7.85695 39.1831 6.40038 37.14 5.3198 34.9558C4.2 32.6908 3.48484 30.2737 3.176 27.8148C2.86338 25.3266 2.96715 22.7959 3.48793 20.3357C3.99864 17.9221 4.91148 15.5764 6.22705 13.4048C6.38052 13.1511 6.6216 12.9841 6.88813 12.9189C7.15416 12.8534 7.44553 12.8903 7.69849 13.0435C7.95204 13.1971 8.11918 13.4382 8.18434 13.7049C8.2496 13.9708 8.21298 14.2623 8.05951 14.5152C6.86887 16.4806 6.04245 18.604 5.57954 20.7876C5.10725 23.0125 5.01346 25.3006 5.29555 27.5494C5.57455 29.7697 6.22146 31.9533 7.23548 34.0008C8.21358 35.9755 9.53344 37.8241 11.1938 39.459C12.8516 41.0902 14.7183 42.3789 16.7061 43.3247C18.7679 44.3053 20.9594 44.9179 23.1829 45.1634C25.039 45.3678 26.9176 45.3163 28.7611 45.0099C30.4967 44.721 32.2018 44.2058 33.8285 43.4651L31.3772 42.8195Z" fill="#2F3A71"/>
<g clip-path="url(#clip0_524_597)">
<path fill-rule="evenodd" clip-rule="evenodd" d="M13.3623 17.5488L37.482 17.5494C37.8552 17.5478 38.1954 17.7017 38.4418 17.9488C38.6876 18.196 38.8407 18.5381 38.8407 18.9133V31.0928C38.8407 31.4685 38.6876 31.81 38.4418 32.0572C38.1954 32.3044 37.8552 32.4583 37.4826 32.4583L13.3623 32.4572C12.9912 32.4588 12.651 32.3049 12.4046 32.0572L12.402 32.0546C12.1572 31.8074 12.0037 31.4664 12.0037 31.0928V28.3338C12.0037 28.1436 12.1462 27.9865 12.3297 27.9644C12.9707 27.8252 13.5326 27.4679 13.9326 26.9751C14.3309 26.4834 14.5705 25.8547 14.5705 25.169C14.5705 24.4834 14.3309 23.8541 13.9326 23.3629C13.5263 22.8623 12.9534 22.5013 12.2998 22.3674C12.2166 22.3503 12.1418 22.3048 12.0882 22.2386C12.0345 22.1724 12.0052 22.0897 12.0052 22.0043L12.0037 18.9143C12.0037 18.5386 12.1567 18.1965 12.4025 17.9494C12.6489 17.7017 12.9891 17.5478 13.3623 17.5488ZM33.087 31.6166C33.087 31.6519 33.0901 31.6846 33.0969 31.7157L18.3166 31.7147V18.2909H33.0969C33.0901 18.322 33.087 18.3546 33.087 18.39V19.2169C33.087 19.7613 33.9094 19.7613 33.9094 19.2169V18.39C33.9094 18.3546 33.9062 18.3214 33.8994 18.2909H37.482C37.6514 18.2919 37.8065 18.3626 37.9187 18.4748C38.0303 18.5876 38.1006 18.7436 38.1006 18.9133V31.0928C38.1006 31.263 38.0303 31.4185 37.9187 31.5307C37.806 31.644 37.6514 31.7141 37.4826 31.7157H33.8994C33.9062 31.6846 33.9094 31.6519 33.9094 31.6166V30.7903C33.9094 30.2458 33.087 30.2458 33.087 30.7903V31.6166ZM33.087 29.137C33.087 29.6814 33.9094 29.6814 33.9094 29.137V28.3101C33.9094 27.7657 33.087 27.7657 33.087 28.3101V29.137ZM33.087 26.6568C33.087 27.2012 33.9094 27.2012 33.9094 26.6568V25.8299C33.9094 25.2855 33.087 25.2855 33.087 25.8299V26.6568ZM33.087 24.1767C33.087 24.7211 33.9094 24.7211 33.9094 24.1767V23.3503C33.9094 22.8059 33.087 22.8059 33.087 23.3503V24.1767ZM33.087 21.6965C33.087 22.2409 33.9094 22.2409 33.9094 21.6965V20.8701C33.9094 20.3257 33.087 20.3257 33.087 20.8701V21.6965ZM22.5173 27.8932C22.5173 27.6302 22.6661 27.3736 22.9078 27.0858L21.5088 26.1962C21.4207 26.1577 21.4223 26.1029 21.4737 26.0397L21.7703 25.7862C21.8249 25.7525 21.8815 25.7382 21.9428 25.7551L23.6694 26.0486L25.1077 24.4823L21.7494 22.1977C21.665 22.1471 21.6576 22.0902 21.7447 22.0248L22.229 21.6359L26.6078 22.8733L27.9014 21.4825C28.3354 21.1052 28.7574 20.936 29.0808 21.0161C29.259 21.0604 29.3224 21.1136 29.377 21.2823C29.4834 21.6122 29.3182 22.0554 28.9257 22.5118L27.5424 23.813L28.7731 28.2152L28.3863 28.7027C28.3208 28.7902 28.2642 28.7828 28.2144 28.6975L25.9416 25.3214L24.3838 26.7675L24.6763 28.503C24.6925 28.5646 24.6789 28.6221 24.6454 28.6764L24.3927 28.9747C24.3298 29.0263 24.2753 29.0279 24.237 28.9399L23.3523 27.5327C23.065 27.7767 22.8092 27.9264 22.5466 27.9259C22.522 27.9254 22.5173 27.9169 22.5173 27.8932Z" fill="#2F3A71"/>
</g>
<defs>
<clipPath id="clip0_524_597">
<rect width="26.837" height="14.9094" fill="white" transform="translate(12.0037 17.5488)"/>
</clipPath>
</defs>
</svg>
