<svg width="35" height="35" viewBox="0 0 35 35" fill="none" xmlns="http://www.w3.org/2000/svg">
<mask id="mask0_467_795" style="mask-type:alpha" maskUnits="userSpaceOnUse" x="0" y="0" width="35" height="35">
<rect width="35" height="35" fill="#D9D9D9"/>
</mask>
<g mask="url(#mask0_467_795)">
<path d="M11.9471 9.17054C11.2104 9.17054 10.5775 8.90598 10.0484 8.37685C9.51948 7.84771 9.25503 7.2148 9.25503 6.47809C9.25503 5.74164 9.51948 5.10884 10.0484 4.57971C10.5775 4.05058 11.2104 3.78601 11.9471 3.78601C12.6838 3.78601 13.3167 4.05058 13.8459 4.57971C14.375 5.10884 14.6396 5.74164 14.6396 6.47809C14.6396 7.2148 14.375 7.84771 13.8459 8.37685C13.3167 8.90598 12.6838 9.17054 11.9471 9.17054ZM20.4168 28.4373H11.3751C10.6384 28.4373 9.96864 28.1867 9.36587 27.6855C8.76285 27.1846 8.38562 26.5658 8.2342 25.8291L5.13232 10.2081H7.36467L10.4888 25.801C10.517 25.9133 10.5848 26.0161 10.6922 26.1094C10.7997 26.203 10.9095 26.2498 11.0218 26.2498H20.4168V28.4373ZM28.1291 31.6343L24.1523 24.7915H13.8207C13.1999 24.7915 12.6657 24.6046 12.218 24.2308C11.7701 23.8567 11.4779 23.3686 11.3415 22.7666L9.68123 14.7684C9.44182 13.6858 9.69192 12.7439 10.4315 11.9428C11.1709 11.1417 12.0538 10.7412 13.0802 10.7412C13.8468 10.7412 14.5461 10.9706 15.1781 11.4295C15.81 11.8886 16.2138 12.5135 16.3896 13.3042L18.0776 21.1456H23.154C23.5988 21.1456 24.012 21.2606 24.3936 21.4905C24.775 21.7205 25.0852 22.0356 25.3244 22.4359L30.0359 30.5406L28.1291 31.6343Z" fill="#2F3A71"/>
</g>
<mask id="mask1_467_795" style="mask-type:alpha" maskUnits="userSpaceOnUse" x="21" y="0" width="14" height="14">
<rect x="21.875" width="13.125" height="13.125" fill="#D9D9D9"/>
</mask>
<g mask="url(#mask1_467_795)">
<path d="M30.2422 9.13281L31.0078 8.36719L28.9844 6.34375V3.82812H27.8906V6.78125L30.2422 9.13281ZM28.4375 12.0312C27.681 12.0312 26.9701 11.8877 26.3047 11.6006C25.6393 11.3135 25.0605 10.9238 24.5684 10.4316C24.0762 9.93945 23.6865 9.36068 23.3994 8.69531C23.1123 8.02995 22.9688 7.31901 22.9688 6.5625C22.9688 5.80599 23.1123 5.09505 23.3994 4.42969C23.6865 3.76432 24.0762 3.18555 24.5684 2.69336C25.0605 2.20117 25.6393 1.81152 26.3047 1.52441C26.9701 1.2373 27.681 1.09375 28.4375 1.09375C29.194 1.09375 29.9049 1.2373 30.5703 1.52441C31.2357 1.81152 31.8145 2.20117 32.3066 2.69336C32.7988 3.18555 33.1885 3.76432 33.4756 4.42969C33.7627 5.09505 33.9062 5.80599 33.9062 6.5625C33.9062 7.31901 33.7627 8.02995 33.4756 8.69531C33.1885 9.36068 32.7988 9.93945 32.3066 10.4316C31.8145 10.9238 31.2357 11.3135 30.5703 11.6006C29.9049 11.8877 29.194 12.0312 28.4375 12.0312ZM28.4375 10.9375C29.6497 10.9375 30.682 10.5114 31.5342 9.65918C32.3864 8.80697 32.8125 7.77474 32.8125 6.5625C32.8125 5.35026 32.3864 4.31803 31.5342 3.46582C30.682 2.61361 29.6497 2.1875 28.4375 2.1875C27.2253 2.1875 26.193 2.61361 25.3408 3.46582C24.4886 4.31803 24.0625 5.35026 24.0625 6.5625C24.0625 7.77474 24.4886 8.80697 25.3408 9.65918C26.193 10.5114 27.2253 10.9375 28.4375 10.9375Z" fill="#2F3A71"/>
</g>
</svg>
