<svg width="23" height="23" viewBox="0 0 23 23" fill="none" xmlns="http://www.w3.org/2000/svg">
<path d="M12.7159 3.51583C13.0035 3.22838 13.3934 3.06689 13.8 3.06689C14.2066 3.06689 14.5965 3.22838 14.8841 3.51583L21.7841 10.4158C22.0715 10.7034 22.233 11.0933 22.233 11.4999C22.233 11.9065 22.0715 12.2964 21.7841 12.584L14.8841 19.484C14.5949 19.7633 14.2076 19.9178 13.8055 19.9143C13.4035 19.9108 13.0189 19.7496 12.7346 19.4653C12.4503 19.181 12.2891 18.7964 12.2856 18.3944C12.2821 17.9923 12.4366 17.605 12.7159 17.3158L16.8667 13.0332H2.3C1.89333 13.0332 1.50333 12.8717 1.21577 12.5841C0.928214 12.2966 0.766666 11.9066 0.766666 11.4999C0.766666 11.0932 0.928214 10.7032 1.21577 10.4157C1.50333 10.1281 1.89333 9.96657 2.3 9.96657H16.8667L12.7159 5.68397C12.4285 5.39642 12.267 5.00649 12.267 4.5999C12.267 4.19332 12.4285 3.80338 12.7159 3.51583Z" fill="#666666"/>
</svg>
